<?xml version="1.0"?>
<svg xmlns="http://www.w3.org/2000/svg" viewBox="0 0 64 64" width="512" height="512"><g id="Filled_outline" data-name="Filled outline"><rect x="43" y="10" width="18" height="44" style="fill:#dd3e46"/><rect x="3" y="10" width="8" height="44" style="fill:#dd3e46"/><rect x="49" y="42" width="8" height="4" transform="translate(106 88) rotate(180)" style="fill:#2e3131"/><polygon points="57 44 57 46 49 46 49 50 61 50 61 44 57 44" style="fill:#dadfe6"/><polygon points="57 44 57 42 49 42 49 38 61 38 61 44 57 44" style="fill:#98a1a1"/><rect x="49" y="30" width="8" height="4" transform="translate(106 64) rotate(180)" style="fill:#2e3131"/><polygon points="57 32 57 34 49 34 49 38 61 38 61 32 57 32" style="fill:#dadfe6"/><polygon points="57 32 57 30 49 30 49 26 61 26 61 32 57 32" style="fill:#98a1a1"/><rect x="49" y="18" width="8" height="4" transform="translate(106 40) rotate(180)" style="fill:#2e3131"/><polygon points="57 20 57 22 49 22 49 26 61 26 61 20 57 20" style="fill:#dadfe6"/><polygon points="57 20 57 18 49 18 49 14 61 14 61 20 57 20" style="fill:#98a1a1"/><rect x="3" y="14" width="4" height="4" style="fill:#f98c96"/><rect x="3" y="22" width="4" height="4" style="fill:#f98c96"/><rect x="3" y="30" width="4" height="4" style="fill:#f98c96"/><rect x="3" y="38" width="4" height="4" style="fill:#f98c96"/><rect x="3" y="46" width="4" height="4" style="fill:#f98c96"/><polygon points="15 52 11 50 11 14 15 12 15 52" style="fill:#98a1a1"/><polygon points="15 52 19 50 19 14 15 12 15 52" style="fill:#dadfe6"/><polygon points="23 52 19 50 19 14 23 12 23 52" style="fill:#98a1a1"/><polygon points="23 52 27 50 27 14 23 12 23 52" style="fill:#dadfe6"/><polygon points="31 52 27 50 27 14 31 12 31 52" style="fill:#98a1a1"/><polygon points="31 52 35 50 35 14 31 12 31 52" style="fill:#dadfe6"/><polygon points="39 52 35 50 35 14 39 12 39 52" style="fill:#98a1a1"/><polygon points="39 52 43 50 43 14 39 12 39 52" style="fill:#dadfe6"/><rect x="43" y="19" width="3" height="2" style="fill:#f98c96"/><rect x="43" y="31" width="3" height="2" style="fill:#f98c96"/><rect x="43" y="43" width="3" height="2" style="fill:#f98c96"/><rect x="43" y="37" width="3" height="2" style="fill:#f98c96"/><rect x="43" y="25" width="3" height="2" style="fill:#f98c96"/><path d="M42,9v3.382l-2.553-1.277a1,1,0,0,0-.891.007l0-.007L35,12.882l-3.553-1.777a1,1,0,0,0-.891.007l0-.007L27,12.882l-3.553-1.777a1,1,0,0,0-.891.007l0-.007L19,12.882l-3.553-1.777a1,1,0,0,0-.891.007l0-.007L12,12.382V9H2V55H12V51.618L14.553,52.9l0-.008A.994.994,0,0,0,15,53a1,1,0,0,0,.447-.1L19,51.118,22.553,52.9l0-.008A.994.994,0,0,0,23,53a1,1,0,0,0,.447-.1L27,51.118,30.553,52.9l0-.008A.994.994,0,0,0,31,53a1,1,0,0,0,.447-.1L35,51.118,38.553,52.9l0-.008A.994.994,0,0,0,39,53a1,1,0,0,0,.447-.1L42,51.618V55H62V9ZM4,15H6v2H4Zm0,8H6v2H4Zm0,8H6v2H4Zm0,8H6v2H4Zm0,8H6v2H4Zm6,6H4V51H8V45H4V43H8V37H4V35H8V29H4V27H8V21H4V19H8V13H4V11h6Zm2-38.382,2-1V50.382l-2-1Zm8,0,2-1V50.382l-2-1ZM18,49.382l-2,1V13.618l2,1ZM28,14.618l2-1V50.382l-2-1ZM26,49.382l-2,1V13.618l2,1ZM36,14.618l2-1V50.382l-2-1ZM34,49.382l-2,1V13.618l2,1Zm6,1V13.618l2,1V49.382ZM60,49H50V47h8V45h2ZM50,43h6v2H50Zm10,0H58V41H50V39H60Zm0-6H50V35h8V33h2ZM50,31h6v2H50Zm10,0H58V29H50V27H60Zm0-6H50V23h8V21h2ZM50,19h6v2H50Zm8,0V17H50V15H60v4ZM48,13V51H60v2H44V45h2V43H44V39h2V37H44V33h2V31H44V27h2V25H44V21h2V19H44V11H60v2Z"/></g></svg>
