<?xml version="1.0"?>
<svg xmlns="http://www.w3.org/2000/svg" viewBox="0 0 64 64" width="512" height="512"><g id="Filled_outline" data-name="Filled outline"><polygon points="47 61 32 57 17 61 32 29 47 61" style="fill:#dd3e46"/><rect x="28" y="3" width="8" height="8" style="fill:#2e3131"/><rect x="30" y="11" width="4" height="38" style="fill:#6b809b"/><rect x="27" y="49" width="10" height="4" style="fill:#2e3131"/><rect x="25" y="4" width="3" height="2" style="fill:#dd3e46"/><rect x="25" y="8" width="3" height="2" style="fill:#dd3e46"/><rect x="36" y="4" width="3" height="2" style="fill:#dd3e46"/><rect x="36" y="8" width="3" height="2" style="fill:#dd3e46"/><rect x="31" y="3" width="2" height="3" style="fill:#6b809b"/><path d="M20,35.184V26.613L9,30.279v6.9a3,3,0,1,0,2,0V35.721l7-2.333v1.8a3,3,0,1,0,2,0ZM10,41a1,1,0,1,1,1-1A1,1,0,0,1,10,41Zm1-7.388V31.721l7-2.334v1.892ZM19,39a1,1,0,1,1,1-1A1,1,0,0,1,19,39Z" style="fill:#f98c96"/><path d="M54,13.659V7.483l-9,3.858v9.843a3,3,0,1,0,2,0V16.659Zm-7-1,5-2.142v1.824l-5,2.142ZM46,25a1,1,0,1,1,1-1A1,1,0,0,1,46,25Z" style="fill:#f98c96"/><path d="M16.1,60.576a1,1,0,0,0,1.163,1.39L32,58.035l14.742,3.931A.994.994,0,0,0,47,62a1,1,0,0,0,.905-1.424L35,33.048V12h2V10h2V8H37V6h2V4H37V2H27V4H25V6h2V8H25v2h2v2h2V33.048Zm29.089-1.1L32.258,56.034a1,1,0,0,0-.516,0L18.816,59.48,29,37.758V48H26v6H38V48H35V37.758ZM36,50v2H28V50ZM29,4h2V6h2V4h2v6H29Zm4,8V48H31V12Z"/><path d="M9,30.279v6.9a3,3,0,1,0,2,0V35.721l7-2.333v1.8a3,3,0,1,0,2,0V26.613ZM10,41a1,1,0,1,1,1-1A1,1,0,0,1,10,41Zm1-7.388V31.721l7-2.334v1.892ZM19,39a1,1,0,1,1,1-1A1,1,0,0,1,19,39Z"/><path d="M45,21.184a3,3,0,1,0,2,0V16.659l7-3V7.483l-9,3.858Zm2-8.525,5-2.142v1.824l-5,2.142ZM46,25a1,1,0,1,1,1-1A1,1,0,0,1,46,25Z"/></g></svg>
