<?xml version="1.0"?>
<svg xmlns="http://www.w3.org/2000/svg" viewBox="0 0 64 64" width="512" height="512"><g id="Filled_outline" data-name="Filled outline"><path d="M37,23H59a0,0,0,0,1,0,0V45a2,2,0,0,1-2,2H39a2,2,0,0,1-2-2V23A0,0,0,0,1,37,23Z" style="fill:#d3843d"/><rect x="35" y="19" width="26" height="4" style="fill:#f1c056"/><path d="M5,23H27a0,0,0,0,1,0,0V45a2,2,0,0,1-2,2H7a2,2,0,0,1-2-2V23A0,0,0,0,1,5,23Z" style="fill:#d3843d"/><rect x="3" y="19" width="26" height="4" style="fill:#f1c056"/><rect x="27" y="29" width="10" height="12" style="fill:#66342e"/><rect x="5" y="27" width="22" height="4" style="fill:#f1c056"/><rect x="12" y="27" width="8" height="4" style="fill:#66342e"/><path d="M14,31h4a0,0,0,0,1,0,0V41a2,2,0,0,1-2,2h0a2,2,0,0,1-2-2V31A0,0,0,0,1,14,31Z" style="fill:#b5554e"/><rect x="37" y="27" width="22" height="4" style="fill:#f1c056"/><rect x="44" y="27" width="8" height="4" style="fill:#66342e"/><path d="M46,31h4a0,0,0,0,1,0,0V41a2,2,0,0,1-2,2h0a2,2,0,0,1-2-2V31A0,0,0,0,1,46,31Z" style="fill:#b5554e"/><rect x="5" y="42" width="5" height="2" style="fill:#f1c056"/><rect x="40" y="42" width="2" height="2" style="fill:#f1c056"/><rect x="54" y="42" width="5" height="2" style="fill:#f1c056"/><rect x="27" y="32" width="5" height="2" style="fill:#b5554e"/><rect x="30" y="36" width="7" height="2" style="fill:#b5554e"/><path d="M61,18H35a1,1,0,0,0-1,1v4a1,1,0,0,0,1,1h1v4H28V24h1a1,1,0,0,0,1-1V19a1,1,0,0,0-1-1H3a1,1,0,0,0-1,1v4a1,1,0,0,0,1,1H4V45a3,3,0,0,0,3,3H25a3,3,0,0,0,3-3V42h8v3a3,3,0,0,0,3,3H57a3,3,0,0,0,3-3V24h1a1,1,0,0,0,1-1V19A1,1,0,0,0,61,18ZM53,28h5v2H53Zm-2,2H45V28h6Zm-4,2h2v9a1,1,0,0,1-2,0Zm-4-2H38V28h5ZM26,30H21V28h5ZM15,32h2v9a1,1,0,0,1-2,0Zm-2-2V28h6v2Zm-2,0H6V28h5ZM4,20H28v2H4Zm2,4H26v2H6ZM26,45a1,1,0,0,1-1,1H7a1,1,0,0,1-1-1V44h4V42H6V32h7v9a3,3,0,0,0,6,0V32h7Zm2-5V34h4V32H28V30h8v6H30v2h6v2Zm30,2H54v2h4v1a1,1,0,0,1-1,1H39a1,1,0,0,1-1-1V32h7v9a3,3,0,0,0,6,0V32h7Zm0-16H38V24H58Zm2-4H36V20H60Z"/><rect x="40" y="42" width="2" height="2"/></g></svg>
