<?xml version="1.0"?>
<svg xmlns="http://www.w3.org/2000/svg" viewBox="0 0 64 64" width="512" height="512"><g id="Filled_outline" data-name="Filled outline"><path d="M11,15c-1.172-1.172-4-4-2-6s4.828.828,6,2a2.559,2.559,0,0,1,1,2L57,53a2.817,2.817,0,0,1,0,4h0a2.817,2.817,0,0,1-4,0L13,16A2.559,2.559,0,0,1,11,15Z" style="fill:#e5a82e"/><path d="M53,15c1.172-1.172,4-4,2-6s-4.828.828-6,2a2.559,2.559,0,0,0-1,2L7,53a2.817,2.817,0,0,0,0,4H7a2.817,2.817,0,0,0,4,0L51,16A2.559,2.559,0,0,0,53,15Z" style="fill:#f1c056"/><path d="M10.335,38.747A8.691,8.691,0,0,1,7,32.223c0-3.96,3.2-6.849,3.335-6.97l1.33,1.494L11,26l.666.746c-.027.024-2.673,2.435-2.666,5.488a6.8,6.8,0,0,0,2.665,5.019Z" style="fill:#f98c96"/><path d="M7.335,42.747C3.8,39.6,2,36.109,2,32.37c0-6.3,5.118-10.924,5.335-11.117l1.331,1.493c-.047.042-4.673,4.24-4.666,9.638,0,3.137,1.574,6.121,4.665,8.869Z" style="fill:#f98c96"/><path d="M53.665,38.747l-1.33-1.494A6.8,6.8,0,0,0,55,32.223c0-3.072-2.638-5.452-2.665-5.476l1.33-1.494c.136.121,3.335,3.01,3.335,6.97A8.691,8.691,0,0,1,53.665,38.747Z" style="fill:#f98c96"/><path d="M56.665,42.747l-1.33-1.494C58.431,38.5,60,35.513,60,32.37c0-5.414-4.618-9.581-4.665-9.623l1.33-1.494C56.882,21.446,62,26.067,62,32.37,62,36.109,60.205,39.6,56.665,42.747Z" style="fill:#f98c96"/><polygon points="38.679 42.321 49.543 53.457 53.457 49.543 42.321 38.679 38.679 42.321" style="fill:#d3843d"/><polygon points="14.457 53.457 25.321 42.321 21.679 38.679 10.543 49.543 14.457 53.457" style="fill:#d3843d"/><path d="M11.666,26.746,11,26l-.665-.747C10.2,25.374,7,28.263,7,32.223a8.691,8.691,0,0,0,3.335,6.524l1.33-1.494A6.8,6.8,0,0,1,9,32.234C8.993,29.181,11.639,26.77,11.666,26.746Z"/><path d="M7.335,42.747l1.33-1.494C5.574,38.505,4,35.521,4,32.384c-.007-5.4,4.619-9.6,4.666-9.638L7.335,21.253C7.118,21.446,2,26.067,2,32.37,2,36.109,3.8,39.6,7.335,42.747Z"/><path d="M52.335,37.253l1.33,1.494A8.691,8.691,0,0,0,57,32.223c0-3.96-3.2-6.849-3.335-6.97l-1.33,1.494c.027.024,2.665,2.4,2.665,5.476A6.8,6.8,0,0,1,52.335,37.253Z"/><path d="M56.665,21.253l-1.33,1.494C55.382,22.789,60,26.956,60,32.37c0,3.143-1.569,6.131-4.665,8.883l1.33,1.494C60.205,39.6,62,36.109,62,32.37,62,26.067,56.882,21.446,56.665,21.253Z"/><path d="M36.844,31.942,51.435,16.986a3.8,3.8,0,0,0,2.272-1.279v0c1.164-1.164,4.7-4.706,2-7.412-.681-.681-2.17-1.634-4.5-.359a13.507,13.507,0,0,0-2.916,2.359,3.793,3.793,0,0,0-1.279,2.272L32,27.213,16.986,12.564a3.75,3.75,0,0,0-1.279-2.271c-1.164-1.165-4.707-4.709-7.414-2s.836,6.25,2,7.414a3.8,3.8,0,0,0,2.271,1.278l14.59,14.956L6.293,52.293a3.8,3.8,0,0,0,0,5.414,3.654,3.654,0,0,0,2.63,1.138A4.073,4.073,0,0,0,11.716,57.7L32,36.91l20.3,20.8A4.047,4.047,0,0,0,55.06,58.84a3.688,3.688,0,0,0,2.647-1.133,3.806,3.806,0,0,0-.009-5.423Zm3.24,10.388,2.244-2.245,9.7,9.468-2.481,2.481ZM49.022,13.4,49,12.947c-.02-.386.145-.676.708-1.24a11.874,11.874,0,0,1,2.462-2.019A2.6,2.6,0,0,1,53.388,9.3a1.22,1.22,0,0,1,.905.405c.894.894.277,2.308-2,4.585h0c-.563.563-.851.749-1.241.708l-.452-.023L25.312,40.9l-2.21-2.21ZM14.448,52.034l-2.482-2.482,9.705-9.468,2.244,2.246ZM13.4,14.979l-.45.022c-.347.02-.62-.084-1.244-.708-2.277-2.277-2.894-3.691-2-4.586s2.308-.277,4.586,2c.624.624.725.9.708,1.244l-.022.45L30.568,28.61l-1.982,1.934ZM10.293,56.293A1.829,1.829,0,0,1,7.7,53.716l2.837-2.767,2.516,2.517ZM35.447,33.374l5.45,5.315L38.686,40.9,33.4,35.478ZM56.292,56.293a1.684,1.684,0,0,1-1.232.547,2.054,2.054,0,0,1-1.344-.538l-2.768-2.836,2.517-2.517,2.827,2.758A1.842,1.842,0,0,1,56.292,56.293Z"/></g></svg>
