<?xml version="1.0"?>
<svg xmlns="http://www.w3.org/2000/svg" viewBox="0 0 64 64" width="512" height="512"><g id="Filled_outline" data-name="Filled outline"><rect x="3" y="25" width="58" height="4" style="fill:#3e5496"/><rect x="5" y="29" width="54" height="28" style="fill:#92cdde"/><rect x="3" y="57" width="58" height="4" style="fill:#3e5496"/><rect x="5" y="29" width="54" height="6" style="fill:#4da19a"/><rect x="10" y="35" width="4" height="22" style="fill:#6caade"/><rect x="20" y="35" width="4" height="22" style="fill:#6caade"/><rect x="40" y="35" width="4" height="22" style="fill:#6caade"/><rect x="50" y="35" width="4" height="22" style="fill:#6caade"/><rect x="30" y="35" width="4" height="22" style="fill:#6caade"/><path d="M56,3a4.7,4.7,0,0,0-4,2H5A2,2,0,0,0,3,7H3A2,2,0,0,0,5,9H52a4.7,4.7,0,0,0,4,2c2.761,0,5-1.791,5-4S58.761,3,56,3Z" style="fill:#ebb562"/><path d="M8,13a4.7,4.7,0,0,1,4,2H59a2,2,0,0,1,2,2h0a2,2,0,0,1-2,2H12a4.7,4.7,0,0,1-4,2c-2.761,0-5-1.791-5-4S5.239,13,8,13Z" style="fill:#ebb562"/><rect x="18" y="29" width="28" height="6" style="fill:#3b73a5"/><rect x="31" y="29" width="2" height="3" style="fill:#6caade"/><rect x="25" y="29" width="2" height="3" style="fill:#6caade"/><rect x="37" y="29" width="2" height="3" style="fill:#6caade"/><path d="M2,30H4V56H2v6H62V56H60V30h2V24H2Zm25,2V30h4v2h2V30h4v2h2V30h6v4H19V30h6v2ZM53,56H51V36h2Zm-4,0H45V36h4ZM11,36h2V56H11Zm4,0h4V56H15Zm6,0h2V56H21Zm4,0h4V56H25Zm6,0h2V56H31Zm4,0h4V56H35Zm6,0h2V56H41ZM17,34H6V30H17ZM6,36H9V56H6ZM60,60H4V58H60Zm-2-4H55V36h3Zm0-22H47V30H58ZM4,26H60v2H4Z"/><path d="M56,2a5.712,5.712,0,0,0-4.483,2H5a3,3,0,0,0,0,6H51.517A5.712,5.712,0,0,0,56,12c3.309,0,6-2.243,6-5S59.309,2,56,2Zm0,8a3.7,3.7,0,0,1-3.191-1.588L52.509,8H5A1,1,0,0,1,5,6H52.509l.3-.412A3.7,3.7,0,0,1,56,4c2.206,0,4,1.346,4,3S58.206,10,56,10Z"/><path d="M59,14H12.483A5.712,5.712,0,0,0,8,12c-3.309,0-6,2.243-6,5s2.691,5,6,5a5.712,5.712,0,0,0,4.483-2H59a3,3,0,0,0,0-6Zm0,4H11.491l-.3.412A3.7,3.7,0,0,1,8,20c-2.206,0-4-1.346-4-3s1.794-3,4-3a3.7,3.7,0,0,1,3.191,1.588l.3.412H59a1,1,0,0,1,0,2Z"/></g></svg>
