<?xml version="1.0"?>
<svg xmlns="http://www.w3.org/2000/svg" viewBox="0 0 64 64" width="512" height="512"><g id="Filled_outline" data-name="Filled outline"><path d="M46,61h0a4,4,0,0,0,4-4V52c0-4-2-17-2-17H44s-2,13-2,17v5A4,4,0,0,0,46,61Z" style="fill:#f1c056"/><path d="M18,61h0a4,4,0,0,0,4-4V52c0-4-2-17-2-17H16s-2,13-2,17v5A4,4,0,0,0,18,61Z" style="fill:#f1c056"/><path d="M57,17c0,11-4.925,20-11,20S35,28,35,17C35,9.82,39.925,3,46,3S57,9.82,57,17Z" style="fill:#dd3e46"/><path d="M29,17c0,11-4.925,20-11,20S7,28,7,17C7,9.82,11.925,3,18,3S29,9.82,29,17Z" style="fill:#dd3e46"/><path d="M37.12,9H54.88c-2-3.526-5.228-6-8.88-6S39.12,5.474,37.12,9Z" style="fill:#92cdde"/><path d="M9.12,9H26.88c-2-3.526-5.228-6-8.88-6S11.12,5.474,9.12,9Z" style="fill:#92cdde"/><path d="M9.12,9A16.375,16.375,0,0,0,7,17H29a16.375,16.375,0,0,0-2.12-8Z" style="fill:#ebb562"/><path d="M37.12,9A16.375,16.375,0,0,0,35,17H57a16.375,16.375,0,0,0-2.12-8Z" style="fill:#ebb562"/><path d="M55.51,27A33.1,33.1,0,0,0,57,17H35a33.1,33.1,0,0,0,1.49,10Z" style="fill:#3e5496"/><path d="M27.51,27A33.1,33.1,0,0,0,29,17H7A33.1,33.1,0,0,0,8.49,27Z" style="fill:#3e5496"/><path d="M18,2C11.607,2,6,9.01,6,17c0,9.552,3.667,17.62,8.664,20.157C14.09,41.1,13,48.977,13,52v5a5,5,0,0,0,10,0V52c0-3.023-1.09-10.9-1.664-14.843C26.333,34.62,30,26.552,30,17,30,9.01,24.393,2,18,2ZM8.028,18H27.972a32.152,32.152,0,0,1-1.209,8H9.237A32.152,32.152,0,0,1,8.028,18Zm.014-2a15.342,15.342,0,0,1,1.643-6h16.63a15.342,15.342,0,0,1,1.643,6ZM18,4a9.1,9.1,0,0,1,7.066,4H10.934A9.1,9.1,0,0,1,18,4Zm3,48v5a3,3,0,0,1-6,0V52c0-2.836,1.066-10.557,1.586-14.159a6.367,6.367,0,0,0,2.828,0C19.934,41.443,21,49.164,21,52ZM18,36c-3.281,0-6.246-3.2-8.082-8H26.082C24.246,32.8,21.281,36,18,36Z"/><path d="M58,17C58,9.01,52.393,2,46,2S34,9.01,34,17c0,9.552,3.667,17.62,8.664,20.157C42.09,41.1,41,48.977,41,52v5a5,5,0,0,0,10,0V52c0-3.023-1.09-10.9-1.664-14.843C54.333,34.62,58,26.552,58,17ZM36.028,18H55.972a32.152,32.152,0,0,1-1.209,8H37.237A32.152,32.152,0,0,1,36.028,18Zm19.93-2H36.042a15.342,15.342,0,0,1,1.643-6h16.63A15.342,15.342,0,0,1,55.958,16ZM46,4a9.1,9.1,0,0,1,7.066,4H38.934A9.1,9.1,0,0,1,46,4Zm3,48v5a3,3,0,0,1-6,0V52c0-2.836,1.066-10.557,1.586-14.159a6.367,6.367,0,0,0,2.828,0C47.934,41.443,49,49.164,49,52ZM46,36c-3.281,0-6.246-3.2-8.082-8H54.082C52.246,32.8,49.281,36,46,36Z"/></g></svg>
