<?xml version="1.0"?>
<svg xmlns="http://www.w3.org/2000/svg" viewBox="0 0 64 64" width="512" height="512"><g id="Filled_outline" data-name="Filled outline"><rect x="3" y="20" width="58" height="12" style="fill:#f1c056"/><rect x="22" y="12" width="20" height="12" style="fill:#ffd782"/><rect x="12" y="28" width="4" height="4" style="fill:#bfbfbf"/><rect x="16" y="28" width="4" height="4" style="fill:#394d5c"/><rect x="20" y="28" width="4" height="4" style="fill:#bfbfbf"/><rect x="24" y="28" width="4" height="4" style="fill:#394d5c"/><rect x="28" y="28" width="4" height="4" style="fill:#bfbfbf"/><rect x="32" y="28" width="4" height="4" style="fill:#394d5c"/><rect x="36" y="28" width="4" height="4" style="fill:#bfbfbf"/><rect x="40" y="28" width="4" height="4" style="fill:#394d5c"/><rect x="44" y="28" width="4" height="4" style="fill:#bfbfbf"/><rect x="48" y="28" width="4" height="4" style="fill:#394d5c"/><rect x="6" y="23" width="2" height="2" style="fill:#fff"/><rect x="56" y="23" width="5" height="2" style="fill:#fff"/><rect x="7" y="32" width="50" height="4" style="fill:#ad6327"/><rect x="3" y="32" width="4" height="24" style="fill:#d9833b"/><rect x="57" y="32" width="4" height="24" style="fill:#d9833b"/><rect x="23" y="41" width="18" height="4" style="fill:#f1c056"/><rect x="23" y="45" width="4" height="10" style="fill:#d9833b"/><rect x="37" y="45" width="4" height="10" style="fill:#d9833b"/><polygon points="48.447 16.895 47.553 15.105 49 14.382 49 9.18 56 7.78 56 14.618 53.447 15.895 52.553 14.105 54 13.382 54 10.22 51 10.82 51 15.618 48.447 16.895" style="fill:#f98c96"/><polygon points="13.447 14.895 12.553 13.105 14 12.382 14 8.382 16.553 7.105 17.447 8.895 16 9.618 16 13.618 13.447 14.895" style="fill:#f98c96"/><rect x="3" y="28" width="9" height="4" style="fill:#fcf078"/><rect x="52" y="28" width="9" height="4" style="fill:#fcf078"/><path d="M43,11H21v8H2V57H8V37H56V57h6V19H43ZM23,13H41V23H23ZM4,29h7v2H4Zm47,2H49V29h2Zm-4,0H45V29h2Zm-4,0H41V29h2Zm-4,0H37V29h2Zm-4,0H33V29h2Zm-4,0H29V29h2Zm-4,0H25V29h2Zm-4,0H21V29h2Zm-4,0H17V29h2Zm-4,0H13V29h2ZM6,55H4V33H6ZM8,35V33H56v2ZM60,55H58V33h2ZM53,31V29h7v2Zm7-10v2H56v2h4v2H4V21H21v4H43V21Z"/><rect x="6" y="23" width="2" height="2"/><path d="M42,56V40H22V56h6V46h8V56Zm-2-2H38V46h2ZM26,54H24V46h2ZM24,44V42H40v2Z"/><polygon points="51 15.618 51 10.82 54 10.22 54 13.382 52.553 14.105 53.447 15.895 56 14.618 56 7.78 49 9.18 49 14.382 47.553 15.105 48.447 16.895 51 15.618"/><polygon points="16 13.618 16 9.618 17.447 8.895 16.553 7.105 14 8.382 14 12.382 12.553 13.105 13.447 14.895 16 13.618"/></g></svg>
