<?xml version="1.0"?>
<svg xmlns="http://www.w3.org/2000/svg" viewBox="0 0 64 64" width="512" height="512"><g id="Filled_outline" data-name="Filled outline"><path d="M43,53H9.856a4,4,0,0,1-3.483-5.968l19.164-33.9a4,4,0,0,1,6.955-.016L49,42H44L29,15,10,49H43Z" style="fill:#98a1a1"/><rect x="26" y="3" width="6" height="14" style="fill:#394d5c"/><rect x="36.5" y="19.5" width="37" height="4" transform="translate(76.5 -33.5) rotate(90)" style="fill:#6e7a88"/><rect x="44.5" y="48.5" width="21" height="4" transform="translate(105.5 -4.5) rotate(90)" style="fill:#d9833b"/><rect x="52" y="41" width="6" height="4" transform="translate(98 -12) rotate(90)" style="fill:#c45c24"/><path d="M32,2H26a1,1,0,0,0-1,1v9.134a4.68,4.68,0,0,0-.331.5L5.5,46.54A5,5,0,0,0,9.86,54H43a1,1,0,0,0,1-1V49a1,1,0,0,0-1-1H11.7L28.466,18h1.056l13.6,24.485A1,1,0,0,0,44,43h5a1,1,0,0,0,.868-1.5L33.362,12.621A4.282,4.282,0,0,0,33,12.08V3A1,1,0,0,0,32,2ZM27,4h4V16H27ZM9.127,48.513A1,1,0,0,0,10,50H42v2H9.86a3,3,0,0,1-2.619-4.478L25,16.116V17a1,1,0,0,0,1,1h.176ZM47.277,41H44.588L31.809,18H32a1,1,0,0,0,1-1v-.982Z"/><path d="M57,62a1,1,0,0,0,1-1V3a1,1,0,0,0-1-1H53a1,1,0,0,0-1,1V61a1,1,0,0,0,1,1ZM56,45H54V41h2ZM54,60V47h2V60ZM54,4h2V39H54Z"/></g></svg>
