<?xml version="1.0"?>
<svg xmlns="http://www.w3.org/2000/svg" viewBox="0 0 64 64" width="512" height="512"><g id="Filled_outline" data-name="Filled outline"><path d="M44,31H18a8,8,0,0,0,0,16H44a8,8,0,0,0,0-16Zm0,12H18a4,4,0,0,1,0-8H44a4,4,0,0,1,0,8Z" style="fill:#d3843d"/><rect x="3" y="23" width="4" height="10" style="fill:#d3843d"/><path d="M57,37s-8-6-13-6H7V25H44c5,0,13-6,13-6Z" style="fill:#f1c056"/><rect x="57" y="17" width="4" height="22" style="fill:#d3843d"/><rect x="18" y="17" width="8" height="4" style="fill:#f1c056"/><rect x="26" y="17" width="8" height="4" style="fill:#f7a90d"/><rect x="20" y="35" width="4" height="8" style="fill:#f1c056"/><rect x="28" y="35" width="4" height="8" style="fill:#f1c056"/><rect x="36" y="35" width="4" height="8" style="fill:#f1c056"/><rect x="20" y="21" width="4" height="4" style="fill:#d3843d"/><rect x="28" y="21" width="4" height="4" style="fill:#d3843d"/><rect x="34" y="17" width="8" height="4" style="fill:#f1c056"/><rect x="36" y="21" width="4" height="4" style="fill:#d3843d"/><rect x="10" y="25" width="2" height="3" style="fill:#fff"/><rect x="14" y="25" width="2" height="3" style="fill:#fff"/><path d="M18,34a5,5,0,0,0,0,10H44a5,5,0,0,0,0-10Zm0,8a3,3,0,0,1,0-6h1v6Zm3,0V36h2v6Zm4,0V36h2v6Zm4,0V36h2v6Zm4,0V36h2v6Zm4,0V36h2v6Zm10-3a3,3,0,0,1-3,3H41V36h3A3,3,0,0,1,47,39Z"/><path d="M56,16v2.49C54.363,19.659,48.013,24,44,24H41V22h2V16H17v6h2v2H8V22H2V34H8V32h4.356A8.993,8.993,0,0,0,18,48H44a8.983,8.983,0,0,0,8.029-13.045C53.829,36,55.32,37.025,56,37.51V40h6V16ZM39,24H37V22h2Zm-4-6h6v2H35Zm0,4v2H33V22Zm-6,0h2v2H29Zm-2-4h6v2H27Zm0,4v2H25V22Zm-8-4h6v2H19Zm2,4h2v2H21ZM4,32V24H6v8Zm47,7a7.008,7.008,0,0,1-7,7H18a7,7,0,0,1,0-14H44a7.857,7.857,0,0,1,1.7.218A7.007,7.007,0,0,1,51,39Zm-4.292-8.582c-.068-.022-.363-.1-.44-.117a8.836,8.836,0,0,0-1.508-.262A7.588,7.588,0,0,0,44,30H8V26h2v2h2V26h2v2h2V26H44c3.918,0,9.336-3.283,12-5.074V35.074A35.483,35.483,0,0,0,46.708,30.418ZM60,38H58V18h2Z"/></g></svg>
