<?xml version="1.0"?>
<svg xmlns="http://www.w3.org/2000/svg" viewBox="0 0 64 64" width="512" height="512"><g id="Filled_outline" data-name="Filled outline"><path d="M34,49a2,2,0,0,1-2-2V41a2,2,0,0,1,2-2h1V33a6,6,0,0,0-6-6H23a6,6,0,0,0-6,6v6h1a2,2,0,0,1,2,2v6a2,2,0,0,1-2,2H17v6a6,6,0,0,0,6,6h6a6,6,0,0,0,6-6V49Z" style="fill:#f1c056"/><polygon points="29 35 23 35 24 11 28 11 29 35" style="fill:#d3843d"/><rect x="23" y="3" width="6" height="8" style="fill:#f1c056"/><rect x="29" y="4" width="3" height="2" style="fill:#ad6327"/><rect x="29" y="8" width="3" height="2" style="fill:#ad6327"/><rect x="20" y="4" width="3" height="2" style="fill:#ad6327"/><rect x="20" y="8" width="3" height="2" style="fill:#ad6327"/><polygon points="28 61 24 61 23 53 29 53 28 61" style="fill:#ad6327"/><rect x="20" y="34" width="12" height="2" style="fill:#ad6327"/><rect x="43" y="7" width="4" height="50" style="fill:#ad6327"/><rect x="23" y="48" width="6" height="2" style="fill:#ad6327"/><rect x="23" y="38" width="6" height="2" style="fill:#ad6327"/><path d="M44,54H41a3,3,0,0,1-3-3V13a3,3,0,0,1,3-3h3ZM41,12a1,1,0,0,0-1,1V51a1,1,0,0,0,1,1h1V12Z" style="fill:#bfbfbf"/><path d="M18,48H16v7a7.008,7.008,0,0,0,7,7h6a7.008,7.008,0,0,0,7-7V48H34a1,1,0,0,1-1-1V41a1,1,0,0,1,1-1h2V33a7.007,7.007,0,0,0-6.373-6.968L29.042,12H30V10h2V8H30V6h2V4H30V2H22V4H20V6h2V8H20v2h2v2h.958l-.585,14.032A7.007,7.007,0,0,0,16,33v7h2a1,1,0,0,1,1,1v6A1,1,0,0,1,18,48Zm6.883,12-.75-6h3.734l-.75,6ZM24,4h4v6H24Zm3.041,8,.916,22H24.043l.916-22ZM18,38V33a4.993,4.993,0,0,1,4.288-4.928L22.04,34H20v2H32V34H29.96l-.248-5.928A4.993,4.993,0,0,1,34,33v5a3,3,0,0,0-3,3v6a3,3,0,0,0,3,3v5a5,5,0,0,1-4.865,4.986l1-7.986H21.867l1,7.986A5,5,0,0,1,18,55V50a3,3,0,0,0,3-3V41A3,3,0,0,0,18,38Z"/><path d="M48,58V6H42v4H41a3,3,0,0,0-3,3V51a3,3,0,0,0,3,3h1v4ZM44,8h2V56H44ZM41,52a1,1,0,0,1-1-1V13a1,1,0,0,1,1-1h1V52Z"/><rect x="23" y="48" width="6" height="2"/><rect x="23" y="38" width="6" height="2"/></g></svg>
